<svg xmlns="http://www.w3.org/2000/svg" viewBox="0 0 128 128" role="img" aria-label="Amit Kaithwas favicon">
  <defs>
    <linearGradient id="bg" x1="18" y1="12" x2="108" y2="116" gradientUnits="userSpaceOnUse">
      <stop offset="0%" stop-color="#0b1020" />
      <stop offset="55%" stop-color="#111827" />
      <stop offset="100%" stop-color="#1f1b4f" />
    </linearGradient>
    <linearGradient id="accent" x1="34" y1="24" x2="94" y2="96" gradientUnits="userSpaceOnUse">
      <stop offset="0%" stop-color="#8b5cf6" />
      <stop offset="50%" stop-color="#a78bfa" />
      <stop offset="100%" stop-color="#67e8f9" />
    </linearGradient>
    <radialGradient id="glow" cx="0" cy="0" r="1" gradientTransform="translate(86 28) rotate(130) scale(72)">
      <stop offset="0%" stop-color="#8b5cf6" stop-opacity="0.55" />
      <stop offset="100%" stop-color="#8b5cf6" stop-opacity="0" />
    </radialGradient>
    <filter id="softGlow" x="-30%" y="-30%" width="160%" height="160%">
      <feGaussianBlur stdDeviation="4" result="blur" />
      <feMerge>
        <feMergeNode in="blur" />
        <feMergeNode in="SourceGraphic" />
      </feMerge>
    </filter>
  </defs>

  <rect x="8" y="8" width="112" height="112" rx="28" fill="url(#bg)" />
  <rect x="8" y="8" width="112" height="112" rx="28" fill="url(#glow)" />
  <rect x="12" y="12" width="104" height="104" rx="24" fill="none" stroke="rgba(255,255,255,0.08)" />

  <g filter="url(#softGlow)">
    <path d="M38 92L60 34H72L94 92H84L79.5 80H52.5L48 92H38ZM56 70H76L66 46L56 70Z" fill="url(#accent)" />
    <path d="M76 34H88L68 64L90 92H78L62 70L52 92H40L60 64L76 34Z" fill="#f8fafc" fill-opacity="0.96" />
  </g>

  <path d="M30 97H98" stroke="url(#accent)" stroke-width="4" stroke-linecap="round" opacity="0.9" />
</svg>
